# xmcd CD database file
#
# Track frame offsets:
#	150
#	20279
#	34285
#	50173
#	64322
#	78066
#	90765
#	110314
#	124906
#	139279
#	149467
#	169008
#	183311
#	198767
#	212926
#	228991
#	244448
#	259318
#
# Disc length: 3671 seconds
#
# Revision: 0
# Processed by: cddbd v1.5.2PL0 Copyright (c) Steve Scherf et al.
# Submitted via: CDex 1.70beta2
#
DISCID=030e5512
DTITLE=Diana Wood - Raw Sax
DYEAR=2005
DGENRE=Jazz
TTITLE0=Baker Street
TTITLE1=Put it Where You want it
TTITLE2=Smooth Operator
TTITLE3=Inherit the Wind
TTITLE4=Your Latest Trick
TTITLE5=Morning Dance
TTITLE6=Best Sax Ever
TTITLE7=Lily Was Here
TTITLE8=In the Mood
TTITLE9=Take Five
TTITLE10=Lonely Tonight
TTITLE11=The Girl from Ipanema
TTITLE12=Slam
TTITLE13=Texas Heartbeat
TTITLE14=Songbird
TTITLE15=Careless Whisper
TTITLE16=Street Life
TTITLE17=Pick up the Pieces
EXTD=YEAR: 2005
EXTT0=
EXTT1=
EXTT2=
EXTT3=
EXTT4=
EXTT5=
EXTT6=
EXTT7=
EXTT8=
EXTT9=
EXTT10=
EXTT11=
EXTT12=
EXTT13=
EXTT14=
EXTT15=
EXTT16=
EXTT17=
PLAYORDER=
